<?xml version="1.0" standalone="no"?>
<!DOCTYPE svg PUBLIC "-//W3C//DTD SVG 20010904//EN"
 "http://www.w3.org/TR/2001/REC-SVG-20010904/DTD/svg10.dtd">
<svg version="1.0" xmlns="http://www.w3.org/2000/svg"
 width="700.000000pt" height="700.000000pt" viewBox="0 0 700.000000 700.000000"
 preserveAspectRatio="xMidYMid meet">
<metadata>
Created by potrace 1.14, written by Peter Selinger 2001-2017
</metadata>
<g transform="translate(0.000000,700.000000) scale(0.100000,-0.100000)"
fill="#000000" stroke="none">
<path d="M1088 5916 c0 -1 -2 -186 -3 -413 -1 -287 2 -413 9 -416 6 -2 193 -3
416 -3 l405 1 0 415 0 415 -412 1 c-227 0 -414 0 -415 0z"/>
<path d="M2085 4011 c1 -1048 3 -1911 3 -1917 2 -7 125 -10 415 -10 l412 1 0
1915 0 1915 -416 1 -415 0 1 -1905z"/>
<path d="M3088 5916 c-1 -1 -2 -187 -3 -413 -2 -369 0 -413 14 -417 9 -2 646
-3 1416 -2 l1400 1 1 405 c0 223 -1 410 -3 416 -3 7 -420 10 -1413 10 -776 0
-1411 0 -1412 0z"/>
<path d="M1086 4911 c-2 -3 -3 -640 -2 -1416 l1 -1410 416 -1 415 -1 0 1416
-1 1416 -413 1 c-227 0 -414 -2 -416 -5z"/>
<path d="M3083 3500 l0 -1417 416 1 416 1 1 1413 c0 1005 -2 1412 -10 1414 -6
1 -194 2 -417 3 l-406 1 0 -1416z"/>
<path d="M4088 4916 c-3 -2 -6 -3793 -3 -3812 4 -20 8 -20 417 -20 l413 1 1
1905 c1 1048 -1 1910 -3 1916 -3 8 -127 11 -413 10 -226 0 -411 0 -412 0z"/>
<path d="M5088 4916 c-1 -1 -2 -638 -3 -1417 l-2 -1416 416 1 416 1 0 1415 0
1415 -412 1 c-227 0 -414 0 -415 0z"/>
<path d="M1083 1503 c0 -411 1 -414 21 -417 12 -3 649 -4 1416 -3 l1395 2 1
413 c1 226 -2 413 -5 414 -3 0 -641 2 -1417 3 l-1410 1 -1 -413z"/>
<path d="M5086 1911 c-3 -6 -1 -810 3 -822 0 -3 187 -5 414 -5 l412 1 2 395
c1 217 0 404 -2 416 -4 20 -8 20 -415 20 -226 0 -413 -2 -414 -5z"/>
</g>
</svg>
